<svg width="12" height="12" viewBox="0 0 12 12" fill="none" xmlns="http://www.w3.org/2000/svg">
<path d="M2.25 7.25C1.90067 7.25 1.605 7.129 1.363 6.887C1.121 6.645 1 6.34933 1 6C1 5.65067 1.121 5.355 1.363 5.113C1.605 4.871 1.90067 4.75 2.25 4.75V3.65388C2.25 3.40529 2.3385 3.1925 2.5155 3.0155C2.6925 2.8385 2.90529 2.75 3.15388 2.75H4.75C4.75 2.40067 4.871 2.105 5.113 1.863C5.355 1.621 5.65067 1.5 6 1.5C6.34933 1.5 6.645 1.621 6.887 1.863C7.129 2.105 7.25 2.40067 7.25 2.75H8.84613C9.09471 2.75 9.3075 2.8385 9.4845 3.0155C9.6615 3.1925 9.75 3.40529 9.75 3.65388V4.75C10.0993 4.75 10.395 4.871 10.637 5.113C10.879 5.355 11 5.65067 11 6C11 6.34933 10.879 6.645 10.637 6.887C10.395 7.129 10.0993 7.25 9.75 7.25V9.34613C9.75 9.59471 9.6615 9.8075 9.4845 9.9845C9.3075 10.1615 9.09471 10.25 8.84613 10.25H3.15388C2.90529 10.25 2.6925 10.1615 2.5155 9.9845C2.3385 9.8075 2.25 9.59471 2.25 9.34613V7.25ZM4.94225 6.19287C5.06408 6.07146 5.125 5.92404 5.125 5.75062C5.125 5.57712 5.06429 5.4295 4.94287 5.30775C4.82146 5.18592 4.67404 5.125 4.50062 5.125C4.32712 5.125 4.1795 5.18571 4.05775 5.30713C3.93592 5.42854 3.875 5.57596 3.875 5.74938C3.875 5.92288 3.93571 6.0705 4.05713 6.19225C4.17854 6.31408 4.32596 6.375 4.49938 6.375C4.67288 6.375 4.8205 6.31429 4.94225 6.19287ZM7.94225 6.19287C8.06408 6.07146 8.125 5.92404 8.125 5.75062C8.125 5.57712 8.06429 5.4295 7.94288 5.30775C7.82146 5.18592 7.67404 5.125 7.50062 5.125C7.32712 5.125 7.1795 5.18571 7.05775 5.30713C6.93592 5.42854 6.875 5.57596 6.875 5.74938C6.875 5.92288 6.93571 6.0705 7.05713 6.19225C7.17854 6.31408 7.32596 6.375 7.49938 6.375C7.67288 6.375 7.8205 6.31429 7.94225 6.19287ZM4.125 8.375H7.875V7.625H4.125V8.375ZM3.15388 9.5H8.84613C8.89104 9.5 8.92792 9.48558 8.95675 9.45675C8.98558 9.42792 9 9.39104 9 9.34613V3.65388C9 3.60896 8.98558 3.57208 8.95675 3.54325C8.92792 3.51442 8.89104 3.5 8.84613 3.5H3.15388C3.10896 3.5 3.07208 3.51442 3.04325 3.54325C3.01442 3.57208 3 3.60896 3 3.65388V9.34613C3 9.39104 3.01442 9.42792 3.04325 9.45675C3.07208 9.48558 3.10896 9.5 3.15388 9.5Z" fill="#CCDAF5"/>
</svg>
