<svg width="12" height="12" viewBox="0 0 12 12" fill="none" xmlns="http://www.w3.org/2000/svg">
<path d="M5.99038 10.75C5.34229 10.75 4.73013 10.6252 4.15388 10.3755C3.57754 10.1258 3.07433 9.78592 2.64425 9.35575C2.21408 8.92567 1.87417 8.42167 1.6245 7.84375C1.37483 7.26583 1.25 6.65125 1.25 6C1.25 5.34042 1.37821 4.72167 1.63463 4.14375C1.89104 3.56583 2.23929 3.06312 2.67938 2.63562C3.11938 2.20804 3.63413 1.87021 4.22363 1.62213C4.81304 1.37404 5.44171 1.25 6.10962 1.25C6.73462 1.25 7.32692 1.35658 7.8865 1.56975C8.44617 1.78292 8.93767 2.07796 9.361 2.45488C9.78442 2.83179 10.1218 3.27971 10.373 3.79863C10.6243 4.31746 10.75 4.88008 10.75 5.4865C10.75 6.35192 10.4928 7.02883 9.97838 7.51725C9.46396 8.00575 8.8045 8.25 8 8.25H7.09425C6.95192 8.25 6.83812 8.29646 6.75287 8.38938C6.66762 8.48238 6.625 8.59233 6.625 8.71925C6.625 8.87375 6.6875 9.03433 6.8125 9.201C6.9375 9.36767 7 9.559 7 9.775C7 10.1051 6.90867 10.3501 6.726 10.5101C6.54325 10.67 6.29804 10.75 5.99038 10.75ZM3.69613 6.19613C3.81538 6.07688 3.875 5.92817 3.875 5.75C3.875 5.57183 3.81538 5.42313 3.69613 5.30388C3.57688 5.18463 3.42817 5.125 3.25 5.125C3.07183 5.125 2.92312 5.18463 2.80387 5.30388C2.68462 5.42313 2.625 5.57183 2.625 5.75C2.625 5.92817 2.68462 6.07688 2.80387 6.19613C2.92312 6.31538 3.07183 6.375 3.25 6.375C3.42817 6.375 3.57688 6.31538 3.69613 6.19613ZM5.19613 4.19613C5.31538 4.07688 5.375 3.92817 5.375 3.75C5.375 3.57183 5.31538 3.42313 5.19613 3.30388C5.07688 3.18462 4.92817 3.125 4.75 3.125C4.57183 3.125 4.42313 3.18462 4.30388 3.30388C4.18463 3.42313 4.125 3.57183 4.125 3.75C4.125 3.92817 4.18463 4.07688 4.30388 4.19613C4.42313 4.31538 4.57183 4.375 4.75 4.375C4.92817 4.375 5.07688 4.31538 5.19613 4.19613ZM7.69613 4.19613C7.81538 4.07688 7.875 3.92817 7.875 3.75C7.875 3.57183 7.81538 3.42313 7.69613 3.30388C7.57688 3.18462 7.42817 3.125 7.25 3.125C7.07183 3.125 6.92313 3.18462 6.80388 3.30388C6.68463 3.42313 6.625 3.57183 6.625 3.75C6.625 3.92817 6.68463 4.07688 6.80388 4.19613C6.92313 4.31538 7.07183 4.375 7.25 4.375C7.42817 4.375 7.57688 4.31538 7.69613 4.19613ZM9.19613 6.19613C9.31538 6.07688 9.375 5.92817 9.375 5.75C9.375 5.57183 9.31538 5.42313 9.19613 5.30388C9.07688 5.18463 8.92817 5.125 8.75 5.125C8.57183 5.125 8.42313 5.18463 8.30388 5.30388C8.18463 5.42313 8.125 5.57183 8.125 5.75C8.125 5.92817 8.18463 6.07688 8.30388 6.19613C8.42313 6.31538 8.57183 6.375 8.75 6.375C8.92817 6.375 9.07688 6.31538 9.19613 6.19613ZM5.99038 10C6.07179 10 6.13542 9.97996 6.18125 9.93988C6.22708 9.89979 6.25 9.84483 6.25 9.775C6.25 9.65833 6.1875 9.52725 6.0625 9.38175C5.9375 9.23625 5.875 9.00837 5.875 8.69812C5.875 8.34171 5.99583 8.05292 6.2375 7.83175C6.47917 7.61058 6.775 7.5 7.125 7.5H8C8.5885 7.5 9.06896 7.32758 9.44138 6.98275C9.81379 6.63783 10 6.13908 10 5.4865C10 4.475 9.61217 3.64104 8.8365 2.98463C8.06092 2.32821 7.15196 2 6.10962 2C4.96671 2 3.99604 2.3875 3.19762 3.1625C2.39921 3.9375 2 4.88333 2 6C2 7.10833 2.38958 8.05208 3.16875 8.83125C3.94792 9.61042 4.88846 10 5.99038 10Z" fill="#CCDAF5"/>
</svg>
