<svg width="12" height="12" viewBox="0 0 12 12" fill="none" xmlns="http://www.w3.org/2000/svg">
<path d="M6.97113 4.87314V4.21539C7.24296 4.08914 7.52742 3.99443 7.8245 3.93126C8.12167 3.8681 8.43017 3.83651 8.75 3.83651C8.95067 3.83651 9.14554 3.8508 9.33463 3.87939C9.52371 3.90789 9.71346 3.94555 9.90388 3.99239V4.61926C9.71671 4.55385 9.53063 4.50639 9.34563 4.47689C9.16071 4.44739 8.96217 4.43264 8.75 4.43264C8.43017 4.43264 8.12038 4.47064 7.82063 4.54664C7.52096 4.62264 7.23779 4.73147 6.97113 4.87314ZM6.97113 7.61351V6.94614C7.23654 6.81989 7.52021 6.72518 7.82213 6.66201C8.12404 6.59893 8.43333 6.56739 8.75 6.56739C8.95067 6.56739 9.14554 6.58164 9.33463 6.61014C9.52371 6.63864 9.71346 6.6763 9.90388 6.72314V7.35001C9.71671 7.2846 9.53063 7.23714 9.34563 7.20764C9.16071 7.17822 8.96217 7.16351 8.75 7.16351C8.43017 7.16351 8.12038 7.2018 7.82063 7.27839C7.52096 7.35497 7.23779 7.46668 6.97113 7.61351ZM6.97113 6.24814V5.58076C7.24296 5.45451 7.52742 5.3598 7.8245 5.29664C8.12167 5.23347 8.43017 5.20189 8.75 5.20189C8.95067 5.20189 9.14554 5.21618 9.33463 5.24476C9.52371 5.27326 9.71346 5.31093 9.90388 5.35776V5.98464C9.71671 5.91922 9.53063 5.87176 9.34563 5.84226C9.16071 5.81285 8.96217 5.79814 8.75 5.79814C8.43017 5.79814 8.12038 5.83772 7.82063 5.91689C7.52096 5.99605 7.23779 6.10647 6.97113 6.24814ZM3.25 8.00964C3.66408 8.00964 4.06696 8.0566 4.45863 8.15051C4.85029 8.24443 5.23908 8.39172 5.625 8.59239V3.67689C5.27375 3.44805 4.89362 3.27643 4.48462 3.16201C4.07562 3.0476 3.66408 2.99039 3.25 2.99039C2.95 2.99039 2.66971 3.01393 2.40912 3.06101C2.14854 3.10818 1.88075 3.18526 1.60575 3.29226C1.56733 3.3051 1.54008 3.32355 1.524 3.34764C1.508 3.37164 1.5 3.39805 1.5 3.42689V8.15576C1.5 8.20068 1.51604 8.23355 1.54812 8.25439C1.58012 8.27522 1.61537 8.2776 1.65387 8.26151C1.89104 8.18076 2.14133 8.1186 2.40475 8.07501C2.66825 8.03143 2.95 8.00964 3.25 8.00964ZM6.375 8.59239C6.76092 8.39172 7.14971 8.24443 7.54138 8.15051C7.93304 8.0566 8.33592 8.00964 8.75 8.00964C9.05 8.00964 9.33175 8.03143 9.59525 8.07501C9.85867 8.1186 10.109 8.18076 10.3461 8.26151C10.3846 8.2776 10.4199 8.27522 10.4519 8.25439C10.484 8.23355 10.5 8.20068 10.5 8.15576V3.42689C10.5 3.39805 10.492 3.37243 10.476 3.35001C10.4599 3.3276 10.4327 3.30835 10.3942 3.29226C10.1192 3.18526 9.85146 3.10818 9.59088 3.06101C9.33029 3.01393 9.05 2.99039 8.75 2.99039C8.33592 2.99039 7.92437 3.0476 7.51537 3.16201C7.10637 3.27643 6.72625 3.44805 6.375 3.67689V8.59239ZM6 9.69226C5.59683 9.39485 5.16192 9.16505 4.69525 9.00289C4.22858 8.84072 3.74683 8.75964 3.25 8.75964C2.94492 8.75964 2.64525 8.79343 2.351 8.86101C2.05675 8.92868 1.77308 9.02822 1.5 9.15964C1.32183 9.24164 1.15229 9.22864 0.991375 9.12064C0.830458 9.01264 0.75 8.8596 0.75 8.66151V3.23276C0.75 3.12501 0.77775 3.02389 0.83325 2.92939C0.888667 2.8348 0.968625 2.76668 1.07312 2.72501C1.41154 2.56026 1.76425 2.4383 2.13125 2.35914C2.49825 2.27997 2.87117 2.24039 3.25 2.24039C3.7365 2.24039 4.21183 2.30689 4.676 2.43989C5.14008 2.57297 5.58142 2.7693 6 3.02889C6.41858 2.7693 6.85992 2.57297 7.324 2.43989C7.78817 2.30689 8.2635 2.24039 8.75 2.24039C9.12883 2.24039 9.50175 2.27997 9.86875 2.35914C10.2358 2.4383 10.5885 2.56026 10.9269 2.72501C11.0314 2.76668 11.1113 2.8348 11.1668 2.92939C11.2223 3.02389 11.25 3.12501 11.25 3.23276V8.66151C11.25 8.8596 11.1663 9.01105 10.999 9.11589C10.8317 9.22064 10.6557 9.23201 10.4711 9.15001C10.2013 9.02176 9.92167 8.92464 9.63225 8.85864C9.34283 8.79264 9.04875 8.75964 8.75 8.75964C8.25317 8.75964 7.77142 8.84072 7.30475 9.00289C6.83808 9.16505 6.40317 9.39485 6 9.69226Z" fill="#CCDAF5"/>
</svg>
