<svg width="12" height="12" viewBox="0 0 12 12" fill="none" xmlns="http://www.w3.org/2000/svg">
<path d="M6 9.49999C6.55 9.49999 7.02083 9.30415 7.4125 8.91249C7.80417 8.52082 8 8.04999 8 7.49999V5.49999C8 4.94999 7.80417 4.47915 7.4125 4.08749C7.02083 3.69582 6.55 3.49999 6 3.49999C5.45 3.49999 4.97917 3.69582 4.5875 4.08749C4.19583 4.47915 4 4.94999 4 5.49999V7.49999C4 8.04999 4.19583 8.52082 4.5875 8.91249C4.97917 9.30415 5.45 9.49999 6 9.49999ZM5.07687 7.87499H6.92312V7.12499H5.07687V7.87499ZM5.07687 5.87499H6.92312V5.12499H5.07687V5.87499ZM6 10.25C5.50325 10.25 5.04446 10.1279 4.62363 9.88361C4.20279 9.63936 3.86863 9.30315 3.62113 8.87499H2.25V8.12499H3.3385C3.28783 7.9199 3.26042 7.71236 3.25625 7.50236C3.25208 7.29245 3.25 7.08332 3.25 6.87499H2.25V6.12499H3.25C3.25 5.91349 3.2505 5.70274 3.2515 5.49274C3.25242 5.28282 3.28142 5.0769 3.3385 4.87499H2.25V4.12499H3.62113C3.74104 3.92049 3.88271 3.73411 4.04613 3.56586C4.20963 3.39761 4.39683 3.25578 4.60775 3.14036L3.75962 2.27686L4.27687 1.75961L5.34238 2.82499C5.55646 2.75965 5.77308 2.72699 5.99225 2.72699C6.2115 2.72699 6.42817 2.75965 6.64225 2.82499L7.73262 1.75961L8.25 2.27686L7.3865 3.14036C7.59742 3.25578 7.78558 3.39632 7.951 3.56199C8.11633 3.72774 8.25896 3.9154 8.37888 4.12499H9.75V4.87499H8.6615C8.71858 5.0769 8.74758 5.28282 8.7485 5.49274C8.7495 5.70274 8.75 5.91349 8.75 6.12499H9.75V6.87499H8.75C8.75 7.08332 8.74792 7.29245 8.74375 7.50236C8.73958 7.71236 8.71217 7.9199 8.6615 8.12499H9.75V8.87499H8.37888C8.13138 9.30315 7.79721 9.63936 7.37637 9.88361C6.95554 10.1279 6.49675 10.25 6 10.25Z" fill="#CCDAF5"/>
</svg>
