<svg width="12" height="12" viewBox="0 0 12 12" fill="none" xmlns="http://www.w3.org/2000/svg">
<path d="M6.12313 9.42315C6.21029 9.41482 6.28208 9.38244 6.3385 9.32603C6.39492 9.26961 6.42312 9.20103 6.42312 9.12028C6.42312 9.02603 6.392 8.95148 6.32975 8.89665C6.26758 8.84182 6.18942 8.81857 6.09525 8.8269C5.75358 8.8519 5.38146 8.75178 4.97888 8.52653C4.57629 8.30119 4.325 7.90936 4.225 7.35103C4.20833 7.26578 4.17258 7.19878 4.11775 7.15003C4.063 7.10128 3.99779 7.0769 3.92212 7.0769C3.83112 7.0769 3.75533 7.11107 3.69475 7.1794C3.63417 7.24765 3.61475 7.33528 3.6365 7.44228C3.77175 8.16861 4.09871 8.68786 4.61738 9.00003C5.13596 9.31219 5.63788 9.45324 6.12313 9.42315ZM3.32163 9.64715C2.60721 8.9119 2.25 7.99619 2.25 6.90003C2.25 6.12436 2.56042 5.27419 3.18125 4.34953C3.80208 3.42486 4.74167 2.41736 6 1.32703C7.25833 2.41736 8.19792 3.42486 8.81875 4.34953C9.43958 5.27419 9.75 6.12436 9.75 6.90003C9.75 7.99619 9.39279 8.9119 8.67838 9.64715C7.96396 10.3824 7.07117 10.75 6 10.75C4.92883 10.75 4.03604 10.3824 3.32163 9.64715ZM8.15 9.11878C8.71667 8.53128 9 7.79169 9 6.90003C9 6.29169 8.74792 5.60419 8.24375 4.83753C7.73958 4.07086 6.99167 3.23336 6 2.32503C5.00833 3.23336 4.26042 4.07086 3.75625 4.83753C3.25208 5.60419 3 6.29169 3 6.90003C3 7.79169 3.28333 8.53128 3.85 9.11878C4.41667 9.70628 5.13333 10 6 10C6.86667 10 7.58333 9.70628 8.15 9.11878Z" fill="#CCDAF5"/>
</svg>
