<svg width="12" height="12" viewBox="0 0 12 12" fill="none" xmlns="http://www.w3.org/2000/svg">
<path d="M6.37163 8.636C6.47004 8.53767 6.51925 8.417 6.51925 8.274C6.51925 8.13108 6.47004 8.01042 6.37163 7.912C6.27321 7.81358 6.15254 7.76438 6.00962 7.76438C5.86671 7.76438 5.74604 7.81358 5.64763 7.912C5.54921 8.01042 5.5 8.13108 5.5 8.274C5.5 8.417 5.54921 8.53767 5.64763 8.636C5.74604 8.73442 5.86671 8.78363 6.00962 8.78363C6.15254 8.78363 6.27321 8.73442 6.37163 8.636ZM5.65575 6.99325H6.35962C6.36604 6.73175 6.40337 6.53254 6.47162 6.39562C6.53987 6.25879 6.67754 6.08683 6.88463 5.87975C7.15063 5.61375 7.34083 5.38767 7.45525 5.2015C7.56967 5.01525 7.62688 4.80354 7.62688 4.56638C7.62688 4.15038 7.48492 3.81496 7.201 3.56012C6.917 3.30529 6.55129 3.17787 6.10388 3.17787C5.69679 3.17787 5.34888 3.28158 5.06013 3.489C4.77129 3.69633 4.566 3.96633 4.44425 4.299L5.0865 4.55675C5.15767 4.34458 5.27596 4.17133 5.44138 4.037C5.60671 3.90275 5.81408 3.83562 6.0635 3.83562C6.33333 3.83562 6.54404 3.90883 6.69563 4.05525C6.84729 4.20175 6.92312 4.37979 6.92312 4.58938C6.92312 4.74388 6.87729 4.8955 6.78562 5.04425C6.69396 5.193 6.55258 5.35358 6.3615 5.526C6.08975 5.77083 5.90421 5.99808 5.80488 6.20775C5.70546 6.41733 5.65575 6.67917 5.65575 6.99325ZM2.65387 10.25C2.40129 10.25 2.1875 10.1625 2.0125 9.9875C1.8375 9.8125 1.75 9.59871 1.75 9.34613V2.65387C1.75 2.40129 1.8375 2.1875 2.0125 2.0125C2.1875 1.8375 2.40129 1.75 2.65387 1.75H9.34613C9.59871 1.75 9.8125 1.8375 9.9875 2.0125C10.1625 2.1875 10.25 2.40129 10.25 2.65387V9.34613C10.25 9.59871 10.1625 9.8125 9.9875 9.9875C9.8125 10.1625 9.59871 10.25 9.34613 10.25H2.65387ZM2.65387 9.5H9.34613C9.38463 9.5 9.41988 9.48396 9.45188 9.45188C9.48396 9.41988 9.5 9.38463 9.5 9.34613V2.65387C9.5 2.61537 9.48396 2.58012 9.45188 2.54812C9.41988 2.51604 9.38463 2.5 9.34613 2.5H2.65387C2.61537 2.5 2.58013 2.51604 2.54813 2.54812C2.51604 2.58012 2.5 2.61537 2.5 2.65387V9.34613C2.5 9.38463 2.51604 9.41988 2.54813 9.45188C2.58013 9.48396 2.61537 9.5 2.65387 9.5Z" fill="#CCDAF5"/>
</svg>
