<svg width="12" height="12" viewBox="0 0 12 12" fill="none" xmlns="http://www.w3.org/2000/svg">
<path d="M2.15387 9.25C1.90129 9.25 1.6875 9.1625 1.5125 8.9875C1.3375 8.8125 1.25 8.59871 1.25 8.34613V3.65387C1.25 3.40129 1.3375 3.1875 1.5125 3.0125C1.6875 2.8375 1.90129 2.75 2.15387 2.75H9.84613C10.0987 2.75 10.3125 2.8375 10.4875 3.0125C10.6625 3.1875 10.75 3.40129 10.75 3.65387V8.34613C10.75 8.59871 10.6625 8.8125 10.4875 8.9875C10.3125 9.1625 10.0987 9.25 9.84613 9.25H2.15387ZM2.15387 8.5H9.84613C9.88463 8.5 9.91988 8.48396 9.95188 8.45188C9.98396 8.41988 10 8.38463 10 8.34613V3.65387C10 3.61537 9.98396 3.58012 9.95188 3.54812C9.91988 3.51604 9.88463 3.5 9.84613 3.5H2.15387C2.11537 3.5 2.08013 3.51604 2.04813 3.54812C2.01604 3.58012 2 3.61537 2 3.65387V8.34613C2 8.38463 2.01604 8.41988 2.04813 8.45188C2.08013 8.48396 2.11537 8.5 2.15387 8.5ZM4.05775 7.94225H7.94225V7.05775H4.05775V7.94225ZM2.55775 6.44225H3.44225V5.55775H2.55775V6.44225ZM4.05775 6.44225H4.94225V5.55775H4.05775V6.44225ZM5.55775 6.44225H6.44225V5.55775H5.55775V6.44225ZM7.05775 6.44225H7.94225V5.55775H7.05775V6.44225ZM8.55775 6.44225H9.44225V5.55775H8.55775V6.44225ZM2.55775 4.94225H3.44225V4.05775H2.55775V4.94225ZM4.05775 4.94225H4.94225V4.05775H4.05775V4.94225ZM5.55775 4.94225H6.44225V4.05775H5.55775V4.94225ZM7.05775 4.94225H7.94225V4.05775H7.05775V4.94225ZM8.55775 4.94225H9.44225V4.05775H8.55775V4.94225Z" fill="#CCDAF5"/>
</svg>
