<svg width="12" height="12" viewBox="0 0 12 12" fill="none" xmlns="http://www.w3.org/2000/svg">
<path d="M3.25 10.25V9.5H5.625V8H2.15387C1.90129 8 1.6875 7.9125 1.5125 7.7375C1.3375 7.5625 1.25 7.34871 1.25 7.09613V2.65387C1.25 2.40129 1.3375 2.1875 1.5125 2.0125C1.6875 1.8375 1.90129 1.75 2.15387 1.75H9.84613C10.0987 1.75 10.3125 1.8375 10.4875 2.0125C10.6625 2.1875 10.75 2.40129 10.75 2.65387V7.09613C10.75 7.34871 10.6625 7.5625 10.4875 7.7375C10.3125 7.9125 10.0987 8 9.84613 8H6.375V9.5H8.75V10.25H3.25ZM2 7.09613C2 7.13463 2.01604 7.16992 2.04813 7.202C2.08013 7.234 2.11537 7.25 2.15387 7.25H9.84613C9.88463 7.25 9.91988 7.234 9.95188 7.202C9.98396 7.16992 10 7.13463 10 7.09613V2.65387C10 2.61537 9.98396 2.58012 9.95188 2.54812C9.91988 2.51604 9.88463 2.5 9.84613 2.5H2.15387C2.11537 2.5 2.08013 2.51604 2.04813 2.54812C2.01604 2.58012 2 2.61537 2 2.65387V7.09613ZM2 7.09613V2.5V7.25V7.09613Z" fill="#CCDAF5"/>
</svg>
