<svg width="12" height="12" viewBox="0 0 12 12" fill="none" xmlns="http://www.w3.org/2000/svg">
<path d="M3.25 10.375C2.79875 10.375 2.41508 10.217 2.099 9.901C1.783 9.58492 1.625 9.20125 1.625 8.75C1.625 8.29875 1.783 7.91508 2.099 7.599C2.41508 7.283 2.79875 7.125 3.25 7.125H4.125V4.875H3.25C2.79875 4.875 2.41508 4.717 2.099 4.401C1.783 4.08492 1.625 3.70125 1.625 3.25C1.625 2.79875 1.783 2.41508 2.099 2.099C2.41508 1.783 2.79875 1.625 3.25 1.625C3.70125 1.625 4.08492 1.783 4.401 2.099C4.717 2.41508 4.875 2.79875 4.875 3.25V4.125H7.125V3.25C7.125 2.79875 7.283 2.41508 7.599 2.099C7.91508 1.783 8.29875 1.625 8.75 1.625C9.20125 1.625 9.58492 1.783 9.901 2.099C10.217 2.41508 10.375 2.79875 10.375 3.25C10.375 3.70125 10.217 4.08492 9.901 4.401C9.58492 4.717 9.20125 4.875 8.75 4.875H7.875V7.125H8.75C9.20125 7.125 9.58492 7.283 9.901 7.599C10.217 7.91508 10.375 8.29875 10.375 8.75C10.375 9.20125 10.217 9.58492 9.901 9.901C9.58492 10.217 9.20125 10.375 8.75 10.375C8.29875 10.375 7.91508 10.217 7.599 9.901C7.283 9.58492 7.125 9.20125 7.125 8.75V7.875H4.875V8.75C4.875 9.20125 4.717 9.58492 4.401 9.901C4.08492 10.217 3.70125 10.375 3.25 10.375ZM3.25 9.625C3.49042 9.625 3.69633 9.53925 3.86775 9.36775C4.03925 9.19633 4.125 8.99042 4.125 8.75V7.875H3.25C3.00958 7.875 2.80367 7.96075 2.63225 8.13225C2.46075 8.30367 2.375 8.50958 2.375 8.75C2.375 8.99042 2.46075 9.19633 2.63225 9.36775C2.80367 9.53925 3.00958 9.625 3.25 9.625ZM8.75 9.625C8.99042 9.625 9.19633 9.53925 9.36775 9.36775C9.53925 9.19633 9.625 8.99042 9.625 8.75C9.625 8.50958 9.53925 8.30367 9.36775 8.13225C9.19633 7.96075 8.99042 7.875 8.75 7.875H7.875V8.75C7.875 8.99042 7.96075 9.19633 8.13225 9.36775C8.30367 9.53925 8.50958 9.625 8.75 9.625ZM4.875 7.125H7.125V4.875H4.875V7.125ZM3.25 4.125H4.125V3.25C4.125 3.00958 4.03925 2.80367 3.86775 2.63225C3.69633 2.46075 3.49042 2.375 3.25 2.375C3.00958 2.375 2.80367 2.46075 2.63225 2.63225C2.46075 2.80367 2.375 3.00958 2.375 3.25C2.375 3.49042 2.46075 3.69633 2.63225 3.86775C2.80367 4.03925 3.00958 4.125 3.25 4.125ZM7.875 4.125H8.75C8.99042 4.125 9.19633 4.03925 9.36775 3.86775C9.53925 3.69633 9.625 3.49042 9.625 3.25C9.625 3.00958 9.53925 2.80367 9.36775 2.63225C9.19633 2.46075 8.99042 2.375 8.75 2.375C8.50958 2.375 8.30367 2.46075 8.13225 2.63225C7.96075 2.80367 7.875 3.00958 7.875 3.25V4.125Z" fill="#CCDAF5"/>
</svg>
