<svg width="12" height="12" viewBox="0 0 12 12" fill="none" xmlns="http://www.w3.org/2000/svg">
<path d="M4.5385 6.92313H9.2115L7.65963 4.88463L6.47113 6.40388L5.6865 5.43275L4.5385 6.92313ZM4.02888 8.75C3.77629 8.75 3.5625 8.6625 3.3875 8.4875C3.2125 8.3125 3.125 8.09871 3.125 7.84613V2.15387C3.125 1.90129 3.2125 1.6875 3.3875 1.5125C3.5625 1.3375 3.77629 1.25 4.02888 1.25H9.72113C9.97371 1.25 10.1875 1.3375 10.3625 1.5125C10.5375 1.6875 10.625 1.90129 10.625 2.15387V7.84613C10.625 8.09871 10.5375 8.3125 10.3625 8.4875C10.1875 8.6625 9.97371 8.75 9.72113 8.75H4.02888ZM4.02888 8H9.72113C9.75963 8 9.79488 7.98396 9.82688 7.95188C9.85896 7.91988 9.875 7.88463 9.875 7.84613V2.15387C9.875 2.11537 9.85896 2.08012 9.82688 2.04812C9.79488 2.01604 9.75963 2 9.72113 2H4.02888C3.99038 2 3.95513 2.01604 3.92313 2.04812C3.89104 2.08012 3.875 2.11537 3.875 2.15387V7.84613C3.875 7.88463 3.89104 7.91988 3.92313 7.95188C3.95513 7.98396 3.99038 8 4.02888 8ZM2.27887 10.5C2.02629 10.5 1.8125 10.4125 1.6375 10.2375C1.4625 10.0625 1.375 9.84871 1.375 9.59613V3.15387H2.125V9.59613C2.125 9.63463 2.14104 9.66988 2.17313 9.70188C2.20513 9.73396 2.24037 9.75 2.27887 9.75H8.72113V10.5H2.27887Z" fill="#CCDAF5"/>
</svg>
