<svg width="12" height="12" viewBox="0 0 12 12" fill="none" xmlns="http://www.w3.org/2000/svg">
<path d="M5.49038 10.75C5.28271 10.75 5.10579 10.6769 4.95962 10.5308C4.81346 10.3846 4.74038 10.2077 4.74038 10V7.69712H3.15863C2.90613 7.69712 2.69154 7.60962 2.51488 7.43462C2.33829 7.25962 2.25 7.04742 2.25 6.798V3.399C2.25 2.94517 2.41217 2.55687 2.7365 2.23412C3.06092 1.91137 3.45163 1.75 3.90863 1.75H9.75V6.798C9.75 7.04742 9.66087 7.25962 9.48262 7.43462C9.30446 7.60962 9.08908 7.69712 8.8365 7.69712H7.25475V10C7.25475 10.2077 7.18171 10.3846 7.03562 10.5308C6.88946 10.6769 6.7125 10.75 6.50475 10.75H5.49038ZM3 5.11537H9V2.5H8.34138V4.42787H7.59138V2.5H6.87975V3.49037H6.12988V2.5H3.90863C3.65604 2.5 3.44146 2.58671 3.26488 2.76012C3.08829 2.93346 3 3.14642 3 3.399V5.11537ZM3.15863 6.94712H8.8365C8.88142 6.94712 8.91988 6.93271 8.95188 6.90388C8.98396 6.87504 9 6.83975 9 6.798V5.86538H3V6.798C3 6.83975 3.01521 6.87504 3.04562 6.90388C3.07612 6.93271 3.11379 6.94712 3.15863 6.94712Z" fill="#CCDAF5"/>
</svg>
