<svg width="12" height="12" viewBox="0 0 12 12" fill="none" xmlns="http://www.w3.org/2000/svg">
<path d="M3.687 11.813C3.60083 11.7267 3.55775 11.6224 3.55775 11.5C3.55775 11.3776 3.60083 11.2733 3.687 11.187C3.77325 11.1008 3.87758 11.0578 4 11.0578C4.12242 11.0578 4.22675 11.1008 4.313 11.187C4.39917 11.2733 4.44225 11.3776 4.44225 11.5C4.44225 11.6224 4.39917 11.7267 4.313 11.813C4.22675 11.8992 4.12242 11.9423 4 11.9423C3.87758 11.9423 3.77325 11.8992 3.687 11.813ZM6 11.9423C5.87758 11.9423 5.77325 11.8992 5.687 11.813C5.60083 11.7267 5.55775 11.6224 5.55775 11.5C5.55775 11.3776 5.60083 11.2733 5.687 11.187C5.77325 11.1008 5.87758 11.0578 6 11.0578C6.12242 11.0578 6.22675 11.1008 6.313 11.187C6.39917 11.2733 6.44225 11.3776 6.44225 11.5C6.44225 11.6224 6.39917 11.7267 6.313 11.813C6.22675 11.8992 6.12242 11.9423 6 11.9423ZM7.687 11.813C7.60083 11.7267 7.55775 11.6224 7.55775 11.5C7.55775 11.3776 7.60083 11.2733 7.687 11.187C7.77325 11.1008 7.87758 11.0578 8 11.0578C8.12242 11.0578 8.22675 11.1008 8.313 11.187C8.39917 11.2733 8.44225 11.3776 8.44225 11.5C8.44225 11.6224 8.39917 11.7267 8.313 11.813C8.22675 11.8992 8.12242 11.9423 8 11.9423C7.87758 11.9423 7.77325 11.8992 7.687 11.813ZM5.113 6.387C4.871 6.145 4.75 5.84933 4.75 5.5V2.5C4.75 2.15067 4.871 1.855 5.113 1.613C5.355 1.371 5.65067 1.25 6 1.25C6.34933 1.25 6.645 1.371 6.887 1.613C7.129 1.855 7.25 2.15067 7.25 2.5V5.5C7.25 5.84933 7.129 6.145 6.887 6.387C6.645 6.629 6.34933 6.75 6 6.75C5.65067 6.75 5.355 6.629 5.113 6.387ZM5.625 10.375V8.72888C4.8 8.63138 4.11458 8.27637 3.56875 7.66387C3.02292 7.05137 2.75 6.33008 2.75 5.5H3.5C3.5 6.19167 3.74375 6.78125 4.23125 7.26875C4.71875 7.75625 5.30833 8 6 8C6.69167 8 7.28125 7.75625 7.76875 7.26875C8.25625 6.78125 8.5 6.19167 8.5 5.5H9.25C9.25 6.33008 8.97708 7.05137 8.43125 7.66387C7.88542 8.27637 7.2 8.63138 6.375 8.72888V10.375H5.625ZM6.35625 5.85625C6.45208 5.76042 6.5 5.64167 6.5 5.5V2.5C6.5 2.35833 6.45208 2.23958 6.35625 2.14375C6.26042 2.04792 6.14167 2 6 2C5.85833 2 5.73958 2.04792 5.64375 2.14375C5.54792 2.23958 5.5 2.35833 5.5 2.5V5.5C5.5 5.64167 5.54792 5.76042 5.64375 5.85625C5.73958 5.95208 5.85833 6 6 6C6.14167 6 6.26042 5.95208 6.35625 5.85625Z" fill="#CCDAF5"/>
</svg>
