<svg width="10" height="10" viewBox="0 0 10 10" fill="none" xmlns="http://www.w3.org/2000/svg">
<path d="M5 5.70801L0.854492 9.85351C0.756836 9.95117 0.639648 10 0.502929 10C0.3597 10 0.239258 9.9528 0.141601 9.8584C0.0472003 9.76074 -1.78814e-07 9.6403 -1.78814e-07 9.49707C-1.78814e-07 9.36035 0.0488279 9.24316 0.146484 9.14551L4.29199 5L0.146484 0.854492C0.0488279 0.756836 -1.78814e-07 0.638021 -1.78814e-07 0.498047C-1.78814e-07 0.429687 0.0130207 0.364583 0.0390623 0.302734C0.065104 0.240885 0.100911 0.188802 0.146484 0.146484C0.192057 0.100911 0.245768 0.065104 0.307617 0.0390623C0.369466 0.0130207 0.43457 -1.78814e-07 0.502929 -1.78814e-07C0.639648 -1.78814e-07 0.756836 0.0488279 0.854492 0.146484L5 4.29199L9.14551 0.146484C9.24316 0.0488279 9.36198 -1.78814e-07 9.50195 -1.78814e-07C9.57031 -1.78814e-07 9.63379 0.0130207 9.69238 0.0390623C9.75423 0.065104 9.80794 0.100911 9.85351 0.146484C9.89909 0.192057 9.9349 0.245768 9.96094 0.307617C9.98698 0.366211 10 0.429687 10 0.498047C10 0.638021 9.95117 0.756836 9.85351 0.854492L5.70801 5L9.85351 9.14551C9.95117 9.24316 10 9.36035 10 9.49707C10 9.56543 9.98698 9.63053 9.96094 9.69238C9.9349 9.75423 9.89909 9.80794 9.85351 9.85351C9.8112 9.89909 9.75911 9.9349 9.69726 9.96094C9.63542 9.98698 9.57031 10 9.50195 10C9.36198 10 9.24316 9.95117 9.14551 9.85351L5 5.70801Z" fill="white"/>
</svg>