<svg width="10" height="1" viewBox="0 0 10 1" fill="none" xmlns="http://www.w3.org/2000/svg">
<path d="M0.498047 1.00098C0.429687 1.00098 0.364583 0.987955 0.302734 0.961914C0.24414 0.935872 0.192057 0.900065 0.146484 0.854492C0.100911 0.808919 0.065104 0.756835 0.0390623 0.698242C0.0130207 0.636393 -1.78814e-07 0.571289 -1.78814e-07 0.502929C-1.78814e-07 0.43457 0.0130207 0.371093 0.0390623 0.3125C0.065104 0.250651 0.100911 0.19694 0.146484 0.151367C0.192057 0.102539 0.24414 0.0651037 0.302734 0.0390621C0.364583 0.0130204 0.429687 -4.17174e-07 0.498047 -4.17174e-07H9.50195C9.57031 -4.17174e-07 9.63379 0.0130204 9.69238 0.0390621C9.75423 0.0651037 9.80794 0.102539 9.85351 0.151367C9.89909 0.19694 9.9349 0.250651 9.96094 0.3125C9.98698 0.371093 10 0.43457 10 0.502929C10 0.571289 9.98698 0.636393 9.96094 0.698242C9.9349 0.756835 9.89909 0.808919 9.85351 0.854492C9.80794 0.900065 9.75423 0.935872 9.69238 0.961914C9.63379 0.987955 9.57031 1.00098 9.50195 1.00098H0.498047Z" fill="white"/>
</svg>